<?xml version="1.0" encoding="UTF-8" standalone="no"?>
<!-- Created with Inkscape (http://www.inkscape.org/) -->

<svg
   width="73.090187mm"
   height="84.397278mm"
   viewBox="0 0 73.090187 84.397278"
   version="1.1"
   id="svg1"
   xml:space="preserve"
   inkscape:version="1.3.2 (091e20e, 2023-11-25, custom)"
   sodipodi:docname="drllama_logo.svg"
   inkscape:export-filename="drllama_logo.png"
   inkscape:export-xdpi="300"
   inkscape:export-ydpi="300"
   xmlns:inkscape="http://www.inkscape.org/namespaces/inkscape"
   xmlns:sodipodi="http://sodipodi.sourceforge.net/DTD/sodipodi-0.dtd"
   xmlns="http://www.w3.org/2000/svg"
   xmlns:svg="http://www.w3.org/2000/svg"><sodipodi:namedview
     id="namedview1"
     pagecolor="#ffffff"
     bordercolor="#000000"
     borderopacity="0.25"
     inkscape:showpageshadow="2"
     inkscape:pageopacity="0.0"
     inkscape:pagecheckerboard="0"
     inkscape:deskcolor="#d1d1d1"
     inkscape:document-units="mm"
     inkscape:zoom="1.5892817"
     inkscape:cx="88.404718"
     inkscape:cy="191.9106"
     inkscape:window-width="1920"
     inkscape:window-height="1112"
     inkscape:window-x="-8"
     inkscape:window-y="-8"
     inkscape:window-maximized="1"
     inkscape:current-layer="layer1" /><defs
     id="defs1"><clipPath
       clipPathUnits="userSpaceOnUse"
       id="clipPath9"><path
         sodipodi:nodetypes="cccccccccccccccccccccccccccccccccccc"
         inkscape:connector-curvature="0"
         id="path10"
         d="m 73.915667,99.760574 c -0.9251,-1.420339 -1.472448,-4.167857 -2.2552,-5.042199 -0.440208,0.989351 -1.15675,2.283669 -2.372479,1.93403 -2.005981,0.480099 -2.579949,-2.20717 -0.61976,-2.705569 0.0565,-1.32966 0.0809,-3.08107 -1.563661,-2.43609 -1.5777,0.097 -3.15785,0.151591 -4.73832,0.13878 -0.869148,1.563449 -1.371869,3.25869 -2.127199,4.8861 -0.444241,1.930188 -2.10383,3.054249 -3.92968,2.894618 -0.60428,-1.06903 0.83004,-2.87981 0.86381,-4.204679 -1.69471,0.4972 -3.71454,-0.711488 -2.25291,-2.652649 2.22688,-2.532679 -3.43865,-2.872491 -2.34792,-6.007899 -0.13377,-4.7201 -0.38892,-9.47012 0.0233,-14.178502 0.002,-2.366 1.76757,-4.024569 1.98491,-6.269768 0.75875,-1.842132 1.50784,-3.71502 2.31541,-5.57693 2.05996,-2.555811 -2.10694,-3.40896 -3.75771,-2.514311 -1.841,0.6932 -3.28901,-2.166639 -0.88152,-2.429759 -0.81259,-2.505951 1.59795,-4.222251 3.57554,-4.901871 1.20425,-1.56935 5.05378,-1.10124 4.71786,-3.27055 -0.693978,-1.54335 -3.26235,-4.55072 -0.623919,-4.781 2.333479,-1.05362 3.527499,3.03269 4.771559,4.64955 1.38271,1.96112 -0.193818,4.56724 1.66851,6.31293 1.29948,2.13956 0.129122,4.47486 -0.63192,6.574421 -1.29803,2.223479 -0.924229,4.791469 -0.32715,7.181279 -0.150659,1.56619 0.876221,1.545219 1.956361,1.428689 2.597219,-0.02159 5.18953,-1.060088 7.779949,-0.55784 1.979552,1.21598 4.740201,1.035931 6.370831,3.13672 2.411999,-0.389419 4.17676,1.679152 4.42405,4.08259 0.387789,2.339001 0.49825,4.93926 -1.00802,6.792061 -0.32747,1.572799 -1.017871,6.000469 -2.931319,3.185059 -1.302742,-1.307399 -2.60931,-0.860899 -2.524421,1.165471 -0.24012,2.91496 -2.58445,4.2091 -5.034989,4.5993 0.176098,2.319771 1.059309,4.530529 1.59281,6.831608 0.807659,1.478531 -1.052201,2.536996 -2.116752,1.73641 z m 6.84562,-16.395298 c 1.055542,-1.01799 0.146312,-4.74595 -0.195908,-1.68855 -0.158432,0.76993 -0.96049,3.79458 0.195908,1.68855 z"
         style="fill:#003b6f;fill-opacity:1;stroke:none;stroke-width:0.118969;stroke-miterlimit:4;stroke-dasharray:none;stroke-opacity:1"
         inkscape:export-filename="C:\Users\ZANAZZI\OneDrive - UNHCR\GTRM - Shared\2. IMWG\Training Material\IM Training November\Presentaciones\assets\img\lama_gtrm.png"
         inkscape:export-xdpi="300"
         inkscape:export-ydpi="300" /></clipPath><clipPath
       clipPathUnits="userSpaceOnUse"
       id="clipPath13"><path
         style="fill:none;stroke:#a6b8c7;stroke-width:0.600001;stroke-dasharray:none"
         d="m 54.911508,50.479586 h 7.239718"
         id="path13" /></clipPath><clipPath
       clipPathUnits="userSpaceOnUse"
       id="clipPath14"><path
         sodipodi:nodetypes="cccccccccccccccccccccccccccccccccccc"
         inkscape:connector-curvature="0"
         id="path15"
         d="m 73.915667,99.760574 c -0.9251,-1.420339 -1.472448,-4.167857 -2.2552,-5.042199 -0.440208,0.989351 -1.15675,2.283669 -2.372479,1.93403 -2.005981,0.480099 -2.579949,-2.20717 -0.61976,-2.705569 0.0565,-1.32966 0.0809,-3.08107 -1.563661,-2.43609 -1.5777,0.097 -3.15785,0.151591 -4.73832,0.13878 -0.869148,1.563449 -1.371869,3.25869 -2.127199,4.8861 -0.444241,1.930188 -2.10383,3.054249 -3.92968,2.894618 -0.60428,-1.06903 0.83004,-2.87981 0.86381,-4.204679 -1.69471,0.4972 -3.71454,-0.711488 -2.25291,-2.652649 2.22688,-2.532679 -3.43865,-2.872491 -2.34792,-6.007899 -0.13377,-4.7201 -0.38892,-9.47012 0.0233,-14.178502 0.002,-2.366 1.76757,-4.024569 1.98491,-6.269768 0.75875,-1.842132 1.50784,-3.71502 2.31541,-5.57693 2.05996,-2.555811 -2.10694,-3.40896 -3.75771,-2.514311 -1.841,0.6932 -3.28901,-2.166639 -0.88152,-2.429759 -0.81259,-2.505951 1.59795,-4.222251 3.57554,-4.901871 1.20425,-1.56935 5.05378,-1.10124 4.71786,-3.27055 -0.693978,-1.54335 -3.26235,-4.55072 -0.623919,-4.781 2.333479,-1.05362 3.527499,3.03269 4.771559,4.64955 1.38271,1.96112 -0.193818,4.56724 1.66851,6.31293 1.29948,2.13956 0.129122,4.47486 -0.63192,6.574421 -1.29803,2.223479 -0.924229,4.791469 -0.32715,7.181279 -0.150659,1.56619 0.876221,1.545219 1.956361,1.428689 2.597219,-0.02159 5.18953,-1.060088 7.779949,-0.55784 1.979552,1.21598 4.740201,1.035931 6.370831,3.13672 2.411999,-0.389419 4.17676,1.679152 4.42405,4.08259 0.387789,2.339001 0.49825,4.93926 -1.00802,6.792061 -0.32747,1.572799 -1.017871,6.000469 -2.931319,3.185059 -1.302742,-1.307399 -2.60931,-0.860899 -2.524421,1.165471 -0.24012,2.91496 -2.58445,4.2091 -5.034989,4.5993 0.176098,2.319771 1.059309,4.530529 1.59281,6.831608 0.807659,1.478531 -1.052201,2.536996 -2.116752,1.73641 z m 6.84562,-16.395298 c 1.055542,-1.01799 0.146312,-4.74595 -0.195908,-1.68855 -0.158432,0.76993 -0.96049,3.79458 0.195908,1.68855 z"
         style="fill:#003b6f;fill-opacity:1;stroke:none;stroke-width:0.118969;stroke-miterlimit:4;stroke-dasharray:none;stroke-opacity:1"
         inkscape:export-filename="C:\Users\ZANAZZI\OneDrive - UNHCR\GTRM - Shared\2. IMWG\Training Material\IM Training November\Presentaciones\assets\img\lama_gtrm.png"
         inkscape:export-xdpi="300"
         inkscape:export-ydpi="300" /></clipPath><clipPath
       clipPathUnits="userSpaceOnUse"
       id="clipPath17"><path
         sodipodi:nodetypes="cccccccccccccccccccccccccccccccccccc"
         inkscape:connector-curvature="0"
         id="path18"
         d="m 73.915667,99.760574 c -0.9251,-1.420339 -1.472448,-4.167857 -2.2552,-5.042199 -0.440208,0.989351 -1.15675,2.283669 -2.372479,1.93403 -2.005981,0.480099 -2.579949,-2.20717 -0.61976,-2.705569 0.0565,-1.32966 0.0809,-3.08107 -1.563661,-2.43609 -1.5777,0.097 -3.15785,0.151591 -4.73832,0.13878 -0.869148,1.563449 -1.371869,3.25869 -2.127199,4.8861 -0.444241,1.930188 -2.10383,3.054249 -3.92968,2.894618 -0.60428,-1.06903 0.83004,-2.87981 0.86381,-4.204679 -1.69471,0.4972 -3.71454,-0.711488 -2.25291,-2.652649 2.22688,-2.532679 -3.43865,-2.872491 -2.34792,-6.007899 -0.13377,-4.7201 -0.38892,-9.47012 0.0233,-14.178502 0.002,-2.366 1.76757,-4.024569 1.98491,-6.269768 0.75875,-1.842132 1.50784,-3.71502 2.31541,-5.57693 2.05996,-2.555811 -2.10694,-3.40896 -3.75771,-2.514311 -1.841,0.6932 -3.28901,-2.166639 -0.88152,-2.429759 -0.81259,-2.505951 1.59795,-4.222251 3.57554,-4.901871 1.20425,-1.56935 5.05378,-1.10124 4.71786,-3.27055 -0.693978,-1.54335 -3.26235,-4.55072 -0.623919,-4.781 2.333479,-1.05362 3.527499,3.03269 4.771559,4.64955 1.38271,1.96112 -0.193818,4.56724 1.66851,6.31293 1.29948,2.13956 0.129122,4.47486 -0.63192,6.574421 -1.29803,2.223479 -0.924229,4.791469 -0.32715,7.181279 -0.150659,1.56619 0.876221,1.545219 1.956361,1.428689 2.597219,-0.02159 5.18953,-1.060088 7.779949,-0.55784 1.979552,1.21598 4.740201,1.035931 6.370831,3.13672 2.411999,-0.389419 4.17676,1.679152 4.42405,4.08259 0.387789,2.339001 0.49825,4.93926 -1.00802,6.792061 -0.32747,1.572799 -1.017871,6.000469 -2.931319,3.185059 -1.302742,-1.307399 -2.60931,-0.860899 -2.524421,1.165471 -0.24012,2.91496 -2.58445,4.2091 -5.034989,4.5993 0.176098,2.319771 1.059309,4.530529 1.59281,6.831608 0.807659,1.478531 -1.052201,2.536996 -2.116752,1.73641 z m 6.84562,-16.395298 c 1.055542,-1.01799 0.146312,-4.74595 -0.195908,-1.68855 -0.158432,0.76993 -0.96049,3.79458 0.195908,1.68855 z"
         style="fill:#003b6f;fill-opacity:1;stroke:none;stroke-width:0.118969;stroke-miterlimit:4;stroke-dasharray:none;stroke-opacity:1"
         inkscape:export-filename="C:\Users\ZANAZZI\OneDrive - UNHCR\GTRM - Shared\2. IMWG\Training Material\IM Training November\Presentaciones\assets\img\lama_gtrm.png"
         inkscape:export-xdpi="300"
         inkscape:export-ydpi="300" /></clipPath><clipPath
       clipPathUnits="userSpaceOnUse"
       id="clipPath20"><path
         sodipodi:nodetypes="cccccccccccccccccccccccccccccccccccc"
         inkscape:connector-curvature="0"
         id="path21"
         d="m 73.915667,99.760574 c -0.9251,-1.420339 -1.472448,-4.167857 -2.2552,-5.042199 -0.440208,0.989351 -1.15675,2.283669 -2.372479,1.93403 -2.005981,0.480099 -2.579949,-2.20717 -0.61976,-2.705569 0.0565,-1.32966 0.0809,-3.08107 -1.563661,-2.43609 -1.5777,0.097 -3.15785,0.151591 -4.73832,0.13878 -0.869148,1.563449 -1.371869,3.25869 -2.127199,4.8861 -0.444241,1.930188 -2.10383,3.054249 -3.92968,2.894618 -0.60428,-1.06903 0.83004,-2.87981 0.86381,-4.204679 -1.69471,0.4972 -3.71454,-0.711488 -2.25291,-2.652649 2.22688,-2.532679 -3.43865,-2.872491 -2.34792,-6.007899 -0.13377,-4.7201 -0.38892,-9.47012 0.0233,-14.178502 0.002,-2.366 1.76757,-4.024569 1.98491,-6.269768 0.75875,-1.842132 1.50784,-3.71502 2.31541,-5.57693 2.05996,-2.555811 -2.10694,-3.40896 -3.75771,-2.514311 -1.841,0.6932 -3.28901,-2.166639 -0.88152,-2.429759 -0.81259,-2.505951 1.59795,-4.222251 3.57554,-4.901871 1.20425,-1.56935 5.05378,-1.10124 4.71786,-3.27055 -0.693978,-1.54335 -3.26235,-4.55072 -0.623919,-4.781 2.333479,-1.05362 3.527499,3.03269 4.771559,4.64955 1.38271,1.96112 -0.193818,4.56724 1.66851,6.31293 1.29948,2.13956 0.129122,4.47486 -0.63192,6.574421 -1.29803,2.223479 -0.924229,4.791469 -0.32715,7.181279 -0.150659,1.56619 0.876221,1.545219 1.956361,1.428689 2.597219,-0.02159 5.18953,-1.060088 7.779949,-0.55784 1.979552,1.21598 4.740201,1.035931 6.370831,3.13672 2.411999,-0.389419 4.17676,1.679152 4.42405,4.08259 0.387789,2.339001 0.49825,4.93926 -1.00802,6.792061 -0.32747,1.572799 -1.017871,6.000469 -2.931319,3.185059 -1.302742,-1.307399 -2.60931,-0.860899 -2.524421,1.165471 -0.24012,2.91496 -2.58445,4.2091 -5.034989,4.5993 0.176098,2.319771 1.059309,4.530529 1.59281,6.831608 0.807659,1.478531 -1.052201,2.536996 -2.116752,1.73641 z m 6.84562,-16.395298 c 1.055542,-1.01799 0.146312,-4.74595 -0.195908,-1.68855 -0.158432,0.76993 -0.96049,3.79458 0.195908,1.68855 z"
         style="fill:#003b6f;fill-opacity:1;stroke:none;stroke-width:0.118969;stroke-miterlimit:4;stroke-dasharray:none;stroke-opacity:1"
         inkscape:export-filename="C:\Users\ZANAZZI\OneDrive - UNHCR\GTRM - Shared\2. IMWG\Training Material\IM Training November\Presentaciones\assets\img\lama_gtrm.png"
         inkscape:export-xdpi="300"
         inkscape:export-ydpi="300" /></clipPath><clipPath
       clipPathUnits="userSpaceOnUse"
       id="clipPath22"><path
         sodipodi:nodetypes="cccccccccccccccccccccccccccccccccccc"
         inkscape:connector-curvature="0"
         id="path23"
         d="m 73.915667,99.760574 c -0.9251,-1.420339 -1.472448,-4.167857 -2.2552,-5.042199 -0.440208,0.989351 -1.15675,2.283669 -2.372479,1.93403 -2.005981,0.480099 -2.579949,-2.20717 -0.61976,-2.705569 0.0565,-1.32966 0.0809,-3.08107 -1.563661,-2.43609 -1.5777,0.097 -3.15785,0.151591 -4.73832,0.13878 -0.869148,1.563449 -1.371869,3.25869 -2.127199,4.8861 -0.444241,1.930188 -2.10383,3.054249 -3.92968,2.894618 -0.60428,-1.06903 0.83004,-2.87981 0.86381,-4.204679 -1.69471,0.4972 -3.71454,-0.711488 -2.25291,-2.652649 2.22688,-2.532679 -3.43865,-2.872491 -2.34792,-6.007899 -0.13377,-4.7201 -0.38892,-9.47012 0.0233,-14.178502 0.002,-2.366 1.76757,-4.024569 1.98491,-6.269768 0.75875,-1.842132 1.50784,-3.71502 2.31541,-5.57693 2.05996,-2.555811 -2.10694,-3.40896 -3.75771,-2.514311 -1.841,0.6932 -3.28901,-2.166639 -0.88152,-2.429759 -0.81259,-2.505951 1.59795,-4.222251 3.57554,-4.901871 1.20425,-1.56935 5.05378,-1.10124 4.71786,-3.27055 -0.693978,-1.54335 -3.26235,-4.55072 -0.623919,-4.781 2.333479,-1.05362 3.527499,3.03269 4.771559,4.64955 1.38271,1.96112 -0.193818,4.56724 1.66851,6.31293 1.29948,2.13956 0.129122,4.47486 -0.63192,6.574421 -1.29803,2.223479 -0.924229,4.791469 -0.32715,7.181279 -0.150659,1.56619 0.876221,1.545219 1.956361,1.428689 2.597219,-0.02159 5.18953,-1.060088 7.779949,-0.55784 1.979552,1.21598 4.740201,1.035931 6.370831,3.13672 2.411999,-0.389419 4.17676,1.679152 4.42405,4.08259 0.387789,2.339001 0.49825,4.93926 -1.00802,6.792061 -0.32747,1.572799 -1.017871,6.000469 -2.931319,3.185059 -1.302742,-1.307399 -2.60931,-0.860899 -2.524421,1.165471 -0.24012,2.91496 -2.58445,4.2091 -5.034989,4.5993 0.176098,2.319771 1.059309,4.530529 1.59281,6.831608 0.807659,1.478531 -1.052201,2.536996 -2.116752,1.73641 z m 6.84562,-16.395298 c 1.055542,-1.01799 0.146312,-4.74595 -0.195908,-1.68855 -0.158432,0.76993 -0.96049,3.79458 0.195908,1.68855 z"
         style="fill:#003b6f;fill-opacity:1;stroke:none;stroke-width:0.118969;stroke-miterlimit:4;stroke-dasharray:none;stroke-opacity:1"
         inkscape:export-filename="C:\Users\ZANAZZI\OneDrive - UNHCR\GTRM - Shared\2. IMWG\Training Material\IM Training November\Presentaciones\assets\img\lama_gtrm.png"
         inkscape:export-xdpi="300"
         inkscape:export-ydpi="300" /></clipPath><clipPath
       clipPathUnits="userSpaceOnUse"
       id="clipPath25"><path
         sodipodi:nodetypes="cccccccccccccccccccccccccccccccccccc"
         inkscape:connector-curvature="0"
         id="path26"
         d="m 73.915667,99.760574 c -0.9251,-1.420339 -1.472448,-4.167857 -2.2552,-5.042199 -0.440208,0.989351 -1.15675,2.283669 -2.372479,1.93403 -2.005981,0.480099 -2.579949,-2.20717 -0.61976,-2.705569 0.0565,-1.32966 0.0809,-3.08107 -1.563661,-2.43609 -1.5777,0.097 -3.15785,0.151591 -4.73832,0.13878 -0.869148,1.563449 -1.371869,3.25869 -2.127199,4.8861 -0.444241,1.930188 -2.10383,3.054249 -3.92968,2.894618 -0.60428,-1.06903 0.83004,-2.87981 0.86381,-4.204679 -1.69471,0.4972 -3.71454,-0.711488 -2.25291,-2.652649 2.22688,-2.532679 -3.43865,-2.872491 -2.34792,-6.007899 -0.13377,-4.7201 -0.38892,-9.47012 0.0233,-14.178502 0.002,-2.366 1.76757,-4.024569 1.98491,-6.269768 0.75875,-1.842132 1.50784,-3.71502 2.31541,-5.57693 2.05996,-2.555811 -2.10694,-3.40896 -3.75771,-2.514311 -1.841,0.6932 -3.28901,-2.166639 -0.88152,-2.429759 -0.81259,-2.505951 1.59795,-4.222251 3.57554,-4.901871 1.20425,-1.56935 5.05378,-1.10124 4.71786,-3.27055 -0.693978,-1.54335 -3.26235,-4.55072 -0.623919,-4.781 2.333479,-1.05362 3.527499,3.03269 4.771559,4.64955 1.38271,1.96112 -0.193818,4.56724 1.66851,6.31293 1.29948,2.13956 0.129122,4.47486 -0.63192,6.574421 -1.29803,2.223479 -0.924229,4.791469 -0.32715,7.181279 -0.150659,1.56619 0.876221,1.545219 1.956361,1.428689 2.597219,-0.02159 5.18953,-1.060088 7.779949,-0.55784 1.979552,1.21598 4.740201,1.035931 6.370831,3.13672 2.411999,-0.389419 4.17676,1.679152 4.42405,4.08259 0.387789,2.339001 0.49825,4.93926 -1.00802,6.792061 -0.32747,1.572799 -1.017871,6.000469 -2.931319,3.185059 -1.302742,-1.307399 -2.60931,-0.860899 -2.524421,1.165471 -0.24012,2.91496 -2.58445,4.2091 -5.034989,4.5993 0.176098,2.319771 1.059309,4.530529 1.59281,6.831608 0.807659,1.478531 -1.052201,2.536996 -2.116752,1.73641 z m 6.84562,-16.395298 c 1.055542,-1.01799 0.146312,-4.74595 -0.195908,-1.68855 -0.158432,0.76993 -0.96049,3.79458 0.195908,1.68855 z"
         style="fill:#003b6f;fill-opacity:1;stroke:none;stroke-width:0.118969;stroke-miterlimit:4;stroke-dasharray:none;stroke-opacity:1"
         inkscape:export-filename="C:\Users\ZANAZZI\OneDrive - UNHCR\GTRM - Shared\2. IMWG\Training Material\IM Training November\Presentaciones\assets\img\lama_gtrm.png"
         inkscape:export-xdpi="300"
         inkscape:export-ydpi="300" /></clipPath></defs><g
     inkscape:label="Layer 1"
     inkscape:groupmode="layer"
     id="layer1"
     transform="translate(-32.04459,-29.054726)"><path
       sodipodi:type="star"
       style="fill:#a6b8c7;fill-opacity:1;stroke:#003b6f;stroke-width:1;stroke-dasharray:none;stroke-opacity:1"
       id="path2"
       inkscape:flatsided="true"
       sodipodi:sides="6"
       sodipodi:cx="68.589684"
       sodipodi:cy="71.253365"
       sodipodi:r1="41.621288"
       sodipodi:r2="36.04509"
       sodipodi:arg1="1.5707963"
       sodipodi:arg2="2.0943951"
       inkscape:rounded="0"
       inkscape:randomized="0"
       d="m 68.589685,112.87465 -36.045094,-20.81064 -10e-7,-41.621289 36.045092,-20.810645 36.045098,20.810643 0,41.621289 z"
       transform="translate(0.26486777,-0.57388018)" /><path
       sodipodi:nodetypes="cccccccccccccccccccccccccccccccccccc"
       inkscape:connector-curvature="0"
       id="path828"
       d="m 73.915668,99.760574 c -0.9251,-1.42034 -1.47245,-4.167858 -2.2552,-5.042198 -0.44021,0.98935 -1.15675,2.283668 -2.37248,1.934028 -2.00598,0.4801 -2.57995,-2.207168 -0.61976,-2.705568 0.0565,-1.32966 0.0809,-3.08107 -1.56366,-2.43609 -1.5777,0.097 -3.15785,0.15159 -4.73832,0.13878 -0.86915,1.56345 -1.37187,3.25869 -2.1272,4.886099 -0.44424,1.930189 -2.10383,3.054249 -3.92968,2.894619 -0.60428,-1.06903 0.83004,-2.879809 0.86381,-4.204678 -1.69471,0.4972 -3.71454,-0.71149 -2.25291,-2.65265 2.22688,-2.53268 -3.43865,-2.87249 -2.34792,-6.0079 -0.13377,-4.7201 -0.38892,-9.47012 0.0233,-14.1785 0.002,-2.366 1.76757,-4.02457 1.98491,-6.26977 0.75875,-1.84213 1.50784,-3.71502 2.31541,-5.57693 2.05996,-2.55581 -2.10694,-3.40896 -3.75771,-2.51431 -1.841,0.6932 -3.28901,-2.16664 -0.88152,-2.42976 -0.81259,-2.50595 1.59795,-4.22225 3.57554,-4.90187 1.20425,-1.56935 5.05378,-1.10124 4.71786,-3.27055 -0.69398,-1.54335 -3.26235,-4.55072 -0.62392,-4.781 2.33348,-1.05362 3.5275,3.03269 4.77156,4.64955 1.38271,1.96112 -0.19382,4.56724 1.66851,6.31293 1.29948,2.13956 0.12912,4.47486 -0.63192,6.57442 -1.29803,2.22348 -0.92423,4.79147 -0.32715,7.18128 -0.15066,1.56619 0.87622,1.54522 1.95636,1.42869 2.59722,-0.0216 5.18953,-1.06009 7.77995,-0.55784 1.97955,1.21598 4.7402,1.03593 6.37083,3.13672 2.412,-0.38942 4.17676,1.67915 4.42405,4.08259 0.38779,2.339 0.49825,4.93926 -1.00802,6.79206 -0.32747,1.5728 -1.01787,6.00047 -2.93132,3.18506 -1.30274,-1.3074 -2.60931,-0.8609 -2.52442,1.16547 -0.24012,2.91496 -2.58445,4.2091 -5.03499,4.5993 0.1761,2.31977 1.05931,4.53053 1.59281,6.831608 0.80766,1.47853 -1.0522,2.536996 -2.11675,1.73641 z m 6.84562,-16.395298 c 1.05554,-1.01799 0.14631,-4.74595 -0.19591,-1.68855 -0.15843,0.76993 -0.96049,3.79458 0.19591,1.68855 z"
       style="fill:#003b6f;fill-opacity:1;stroke:none;stroke-width:0.118969;stroke-miterlimit:4;stroke-dasharray:none;stroke-opacity:1"
       inkscape:export-filename="C:\Users\ZANAZZI\OneDrive - UNHCR\GTRM - Shared\2. IMWG\Training Material\IM Training November\Presentaciones\assets\img\lama_gtrm.png"
       inkscape:export-xdpi="300"
       inkscape:export-ydpi="300" /><g
       id="GUIAS"
       transform="matrix(0.26458333,0,0,0.26458333,-35.795222,325.64716)">
</g><text
       xml:space="preserve"
       style="font-weight:bold;font-size:12.7px;line-height:0.9;font-family:Dosis;-inkscape-font-specification:'Dosis Bold';text-align:center;text-anchor:middle;fill:#003b6f;fill-opacity:1;stroke:#49535a;stroke-width:1;stroke-dasharray:none;stroke-opacity:1"
       x="43.451229"
       y="62.125164"
       id="text2"><tspan
         sodipodi:role="line"
         id="tspan2"
         style="font-style:normal;font-variant:normal;font-weight:normal;font-stretch:normal;font-size:12.7px;font-family:'Doctor Who';-inkscape-font-specification:'Doctor Who';fill:#003b6f;fill-opacity:1;stroke:none;stroke-width:1"
         x="43.451229"
         y="62.125164">DR</tspan></text><text
       xml:space="preserve"
       style="font-weight:bold;font-size:12.7px;line-height:0.9;font-family:Dosis;-inkscape-font-specification:'Dosis Bold';text-align:center;text-anchor:middle;fill:#003b6f;fill-opacity:1;stroke:#49535a;stroke-width:1;stroke-dasharray:none;stroke-opacity:1"
       x="84.280403"
       y="62.125164"
       id="text3"><tspan
         sodipodi:role="line"
         id="tspan3"
         style="font-style:normal;font-variant:normal;font-weight:normal;font-stretch:normal;font-size:12.7px;font-family:'Doctor Who';-inkscape-font-specification:'Doctor Who';fill:#003b6f;fill-opacity:1;stroke:none;stroke-width:1"
         x="84.280403"
         y="62.125164">LLAMA</tspan></text><path
       style="fill:none;stroke:#d0dae1;stroke-width:0.893523;stroke-dasharray:none;stroke-opacity:1"
       d="m 67.206135,66.160799 c 0.04383,1.928384 -4.890241,9.154978 -4.890241,9.154978"
       id="path1"
       sodipodi:nodetypes="cc"
       clip-path="url(#clipPath25)" /><circle
       style="fill:none;stroke:#d0dae1;stroke-width:0.893523;stroke-dasharray:none;stroke-opacity:1"
       id="path3"
       cx="61.092911"
       cy="77.033951"
       r="2.0688872" /><rect
       style="fill:#d0dae1;fill-opacity:1;stroke:none;stroke-width:2.086;stroke-dasharray:none;stroke-opacity:1"
       id="rect23"
       width="6.8672924"
       height="1.1237389"
       x="54.290455"
       y="49.635792" /><ellipse
       style="fill:#d0dae1;fill-opacity:1;stroke:none;stroke-width:2.086;stroke-dasharray:none;stroke-opacity:1"
       id="path24"
       cx="54.330273"
       cy="50.148502"
       rx="0.52237809"
       ry="2.7737541" /></g><style
     type="text/css"
     id="style2">
	.st0{fill:none;}
	.st1{fill:#00AAAD;}
	.st2{fill:none;stroke:#00AAAD;stroke-width:2;stroke-linecap:round;stroke-miterlimit:10;}
</style></svg>
